# xmcd
#
# Track frame offsets: 
#        150
#        15385
#        30530
#        43179
#        59041
#        72746
#        86181
#        101990
#        122040
#        138257
#        154001
#        171764
#        191960
#
# Disc length: 2796 seconds
#
# Revision: 3
# Processed by: cddbd v1.5.2PL0 Copyright (c) Steve Scherf et al.
# Submitted via: ExactAudioCopy v1.0b3
#
DISCID=c00aea0d
DTITLE=B.B. King - Reflections ( SACD Remaster 2003 )
DYEAR=2003
DGENRE=Blues
TTITLE0=Exactly Like You
TTITLE1=On My Word of Honor
TTITLE2=I Want a Little Girl
TTITLE3=I'll String Along with You
TTITLE4=I Need You
TTITLE5=A Mother's Love
TTITLE6=(I Love You) For Sentimental Reasons
TTITLE7=Neighborhood Affair
TTITLE8=Tomorrow Night
TTITLE9=There I've Said It Again
TTITLE10=Always on my Mind
TTITLE11=Cross my Heart
TTITLE12=What a Wonderful World
EXTD=
EXTT0=
EXTT1=
EXTT2=
EXTT3=
EXTT4=
EXTT5=
EXTT6=
EXTT7=
EXTT8=
EXTT9=
EXTT10=
EXTT11=
EXTT12=
PLAYORDER=
